<svg width="505" height="451" viewBox="0 0 505 451" fill="none" xmlns="http://www.w3.org/2000/svg">
<path d="M495.631 226.446L478.475 230.306L475.392 247.616L471.532 230.461L454.223 227.369L471.378 223.518L474.469 206.2L478.321 223.363L495.631 226.446Z" fill="#FFED88"/>
<path d="M400.038 199.518C400.319 194.959 400.593 190.403 400.859 185.847V185.825C401.094 185.834 401.329 185.806 401.555 185.742C402.592 185.418 403.176 184.338 403.566 183.316C404.793 180.068 405.105 176.553 405.223 173.073C405.298 170.699 405.288 168.266 404.532 166.015C403.678 163.451 400.01 158.569 397.476 162.425C396.914 163.45 396.583 164.585 396.507 165.751C396.283 167.468 396.097 169.214 396.008 170.966C395.788 168.126 395.303 165.253 393.83 162.83C392.918 161.327 391.287 159.928 389.568 160.312C389.048 160.463 388.568 160.73 388.165 161.093C387.762 161.455 387.447 161.905 387.242 162.407C386.849 163.416 386.617 164.48 386.554 165.561C386.417 166.878 386.298 168.209 386.221 169.549L385.793 169.529C384.572 168.425 383.589 167.084 382.903 165.587C382.218 164.091 381.844 162.47 381.804 160.824C381.771 158.977 381.744 157.124 381.71 155.277H381.853C390.026 141.578 398.483 128.061 407.223 114.724L371.516 94.1414L473.073 36.9183L479.568 161.87L443.794 138.285L401.452 214.143L401.302 214.138C401.346 213.086 401.389 212.027 401.419 210.966C401.547 207.254 401.629 203.543 401.704 199.831L400.027 199.741C400.033 199.666 400.039 199.592 400.038 199.518Z" fill="#FFED88"/>
<path d="M472.943 414C474.224 425.348 471.746 436.81 468.181 447.657L468.177 447.784C440.804 446.667 413.433 445.556 386.064 444.449L386.084 443.998C387.274 441.824 387.829 439.359 387.685 436.884C387.541 434.41 386.704 432.026 385.269 430.004C382.363 426.029 377.93 423.838 373.124 424.831C373.602 423.701 374.022 422.552 374.383 421.385C376.378 415.056 376.901 408.368 377.167 401.739C377.552 392.028 377.011 381.272 370.321 374.218C365.384 369.02 357.959 366.759 350.798 366.506C348.021 366.423 345.241 366.532 342.479 366.834L342.431 366.355L347.077 330.522C359.555 321.938 374.22 317.917 389.224 319.97C404.251 322.022 418.471 330.98 425.654 344.344C432.69 357.434 432.387 374.186 424.879 387.022C433.097 379.088 446.98 378.982 456.572 385.174C466.164 391.366 471.661 402.652 472.943 414Z" fill="#FFED88"/>
<path d="M433.78 306.124L430.022 308.986L430.248 313.697L426.365 311.013L421.957 312.688L423.313 308.167L420.355 304.486L425.076 304.373L427.661 300.425L429.225 304.881L433.78 306.124Z" fill="#FFED88"/>
<path d="M402.277 23.3516C406.37 25.7305 407.11 32.2853 403.644 35.5155C401.379 37.6237 385.507 35.0938 382.096 35.0129C374.703 34.8391 367.308 34.6659 359.91 34.4933C352.742 34.3303 344.109 35.4619 337.118 33.9657C332.681 33.013 329.351 28.4991 335.27 25.2057C338.556 23.3755 342.621 24.163 346.275 25.0581C345.254 19.6667 349.202 13.8332 354.577 12.7751C359.952 11.717 365.821 15.5956 366.942 20.9698C365.718 15.2298 365.523 8.42389 369.805 4.42111C374.947 -0.379386 384.059 2.09801 388.092 7.85803C392.125 13.6178 392.206 21.2747 391.038 28.2096C392.114 23.5932 398.176 20.9801 402.277 23.3516Z" fill="#FFED88"/>
<path d="M372.884 169.506C372.841 170.581 372.789 171.664 372.746 172.738C372.271 172.989 371.796 173.247 371.329 173.513C370.788 173.818 370.254 174.13 369.728 174.457C370.662 172.735 371.716 171.08 372.884 169.506Z" fill="#171717"/>
<path d="M368.961 197.364L368.949 197.514C368.842 202.12 368.713 206.77 368.434 211.417C367.65 224.102 365.678 236.672 359.54 247.652C354.709 256.299 347.555 263.422 338.888 268.216C330.221 273.01 320.385 275.283 310.493 274.78C310.691 274.287 310.801 273.764 310.819 273.234C310.933 271.939 311.047 270.653 311.161 269.359C311.239 268.494 311.274 267.517 310.705 266.861C310.065 266.14 308.954 266.127 307.994 266.171L301.897 266.464V266.457C302.01 263.649 302.78 260.908 304.146 258.453C305.512 255.998 307.435 253.898 309.76 252.322L309.806 252.366C309.703 252.466 309.607 252.566 309.505 252.658C315.121 248.583 321.503 242.485 324.753 236.046C326.401 236.82 328.043 237.592 329.678 238.362C333.251 232.23 336.887 226.892 341.256 220.787C348.478 207.86 356.483 196.418 363.724 184.084L363.993 184.027C364.458 185.797 365.257 187.462 366.348 188.931C368.369 191.929 370.635 194.755 373.124 197.377L373.108 197.648C371.721 197.557 370.345 197.461 368.961 197.364Z" fill="#FFED88"/>
<path d="M373.125 424.831C372.439 426.481 371.629 428.075 370.7 429.602C368.839 432.723 366.372 435.44 363.445 437.595C362.891 437.999 362.321 438.371 361.743 438.715C357.993 440.983 353.749 442.234 349.35 442.963C346.054 443.478 342.732 443.808 339.399 443.951C318.384 445.08 295.402 444.264 271.697 443.028L271.655 442.796C273.285 442.519 274.768 441.99 275.367 440.903C275.872 439.991 275.543 438.391 275.184 437.092C275.045 436.562 274.9 436.077 274.808 435.712C274.11 432.994 272.066 430.592 269.475 428.915C268.124 428.056 266.683 427.348 265.178 426.803L265.235 426.651C274.278 414.96 280.472 396.755 290.841 386.221C292.295 384.746 295 382.906 298.578 380.95C306.135 376.933 314.065 373.661 322.255 371.178C328.841 369.084 335.613 367.63 342.478 366.837C345.24 366.535 348.02 366.425 350.797 366.509C357.959 366.762 365.384 369.023 370.32 374.222C377.01 381.274 377.55 392.03 377.166 401.743C376.901 408.372 376.374 415.059 374.382 421.389C374.02 422.551 373.602 423.702 373.125 424.831Z" fill="#171717"/>
<path d="M323.295 211.432C328.051 217.604 328.537 226.371 325.802 233.664C325.498 234.477 325.147 235.272 324.751 236.045C321.5 242.484 315.119 248.58 309.502 252.657C309.606 252.565 309.701 252.465 309.803 252.366C314.126 248.214 316.434 242.26 317.074 236.291C317.734 230.178 316.763 224.013 315.375 218.029L315.368 218.014C315.547 217.942 315.725 217.863 315.903 217.786C318.915 216.457 322.103 214.314 323.112 211.37L323.295 211.432Z" fill="#171717"/>
<path d="M288.283 221.284L288.176 221.887C289.764 235.841 287.777 254.171 270.446 258.229C270.78 261.446 270.952 264.677 270.962 267.912C270.957 270.073 270.722 272.227 270.265 274.34C269.733 276.761 268.794 279.075 267.489 281.183C263.133 288.242 255.72 293.573 247.473 294.486C242.768 295.011 237.891 294.151 233.1 293.492C227.398 292.718 221.809 292.227 216.742 294.697C211.921 297.05 208.733 301.597 206.038 306.335C205.468 307.339 204.919 308.358 204.378 309.361C199.273 318.861 194.164 328.364 189.05 337.87L189.043 337.862C185.671 329.8 183.949 321.146 183.98 312.408C184.009 303.67 185.79 295.028 189.217 286.99C192.643 278.952 197.647 271.683 203.93 265.611C210.213 259.539 217.65 254.789 225.801 251.64C228.525 250.564 231.32 249.678 234.167 248.991C235.122 248.752 236.087 248.543 237.051 248.356C239.915 247.804 242.962 247.375 245.249 245.56C248.223 243.196 249.109 239.136 250.002 235.437C252.189 226.407 255.633 217.537 261.303 210.164C262.047 209.195 262.838 208.245 263.666 207.333C269.111 201.339 276.226 196.788 284.16 195.297C294.457 193.363 304.983 196.642 314.684 200.602C318.753 202.261 323.416 204.965 323.447 209.365C323.454 210.047 323.342 210.726 323.116 211.37C322.107 214.313 318.919 216.457 315.907 217.786C315.729 217.864 315.551 217.944 315.372 218.013C306.827 221.617 297.441 222.75 288.283 221.284Z" fill="#171717"/>
<path d="M253.653 375.726C257.927 377.868 261.352 379.834 264.674 381.337C272.693 384.973 280.126 385.964 297.529 380.439L298.392 380.412L298.577 380.949C295.001 382.906 292.294 384.747 290.84 386.22C280.469 396.754 274.277 414.959 265.233 426.651L265.176 426.802C265.047 426.753 264.919 426.703 264.79 426.66C261.974 425.711 259.078 425.014 256.138 424.578C252.019 423.802 247.827 423.486 243.637 423.633C239.42 423.869 235.156 424.858 231.65 426.919C228.144 428.979 225.482 432.161 224.989 435.636L224.085 435.514C207.276 428.064 208.258 427.546 194.36 415.504C189.896 411.629 185.73 407.317 182.793 402.185C180.747 398.685 179.449 394.8 178.98 390.773C178.773 388.916 178.799 387.04 179.058 385.189C179.88 380.07 182.339 375.354 186.066 371.75C188.588 369.227 191.551 367.188 194.807 365.734C199.167 363.848 203.848 362.811 208.596 362.679C211.163 362.584 213.734 362.685 216.285 362.98C217.678 363.145 219.071 363.354 220.445 363.616C226.769 364.813 232.866 366.937 238.872 369.303C239.675 369.623 240.485 369.943 241.288 370.264C242.591 370.797 243.894 371.325 245.191 371.859C248.392 373.177 251.162 374.482 253.653 375.726Z" fill="#171717"/>
<path d="M264.675 381.339L297.53 380.441C280.126 385.964 272.692 384.974 264.675 381.339Z" fill="#FFED88"/>
<path d="M263.578 207.259L263.663 207.333C262.835 208.244 262.045 209.194 261.3 210.164C255.63 217.537 252.184 226.407 249.999 235.437C249.106 239.137 248.22 243.196 245.246 245.56C242.959 247.376 239.912 247.804 237.048 248.355C236.084 248.542 235.12 248.751 234.164 248.991L234.098 248.706L216.823 240.478L216.766 240.532C204.793 226.599 191.654 213.871 177.255 202.95L177.654 202.431C180.99 196.8 184.324 191.171 187.655 185.546C189.523 182.403 191.39 179.255 193.256 176.102C193.554 175.599 193.851 175.097 194.147 174.595C217.312 185.252 240.829 195.992 263.578 207.259Z" fill="#FFED88"/>
<path d="M208.591 362.62V362.68C203.842 362.812 199.162 363.849 194.802 365.736C191.546 367.19 188.584 369.228 186.062 371.751L185.687 371.076C178.575 362.584 171.4 354.151 164.165 345.777C164.942 339.58 165.718 333.385 166.491 327.193C180.445 341.366 195.67 353.973 208.591 362.62Z" fill="#FFED88"/>
<path d="M196.55 134.787L190.97 140.476L192.496 148.296L185.359 144.746L178.385 148.612L179.562 140.73L173.733 135.296L181.589 133.972L184.957 126.748L188.643 133.815L196.55 134.787Z" fill="#171717"/>
<path d="M185.688 371.075L186.063 371.75C182.336 375.355 179.877 380.07 179.055 385.19C178.796 387.04 178.77 388.914 178.977 390.771L178.122 390.865C165.359 390.939 152.147 387.494 141.433 383.528C135.555 381.371 129.834 378.806 124.313 375.852L123.705 375.475L141.162 347.076L141.353 347.19C148.949 346.72 156.545 346.243 164.145 345.909C164.151 345.864 164.157 345.819 164.164 345.773C171.403 354.152 178.577 362.586 185.688 371.075Z" fill="#FFED88"/>
<path d="M175.977 75.4738C176.825 79.4949 173.949 83.5541 170.297 85.4378C166.644 87.3215 162.391 87.5289 158.287 87.7027L99.777 90.1562C94.2699 90.3842 80.9476 93.3545 76.1773 89.248C69.8452 83.7945 81.3408 81.6982 85.5954 81.8891C88.8575 82.0339 92.2876 82.2726 95.2294 80.8635C91.1401 72.9434 94.9508 61.9612 103.061 58.2661C111.172 54.571 121.962 58.9185 125.248 67.2033C122.633 59.3972 126.471 49.9648 133.799 46.2116C141.127 42.4584 151.025 44.8515 155.829 51.5329C160.634 58.2143 159.749 68.364 153.862 74.112C157.455 71.5685 161.412 69.1606 165.806 68.8825C170.199 68.6044 175.065 71.1594 175.977 75.4738Z" fill="#171717"/>
<path d="M163.835 122.421L149.22 125.712L146.583 140.459L143.298 125.845L128.55 123.206L143.166 119.923L145.796 105.176L149.088 119.79L163.835 122.421Z" fill="#FFED88"/>
<path d="M166.492 327.192C165.714 333.382 164.939 339.576 164.166 345.776C159.881 340.826 155.578 335.898 151.258 330.993L151.113 330.906L158.41 319.036L158.61 318.851C161.173 321.678 163.8 324.459 166.492 327.192Z" fill="#FFED88"/>
<path d="M164.166 345.776C164.159 345.821 164.153 345.866 164.147 345.912C156.546 346.247 148.951 346.724 141.355 347.194L141.165 347.08L151.115 330.908L151.259 330.995C155.582 335.898 159.884 340.825 164.166 345.776Z" fill="#FFED88"/>
<path d="M121.269 297.764C122.86 295.064 124.444 292.364 126.021 289.668C127.678 286.839 129.331 284.013 130.979 281.193L131.366 281.003C137.651 293.449 147.441 306.536 158.612 318.851L158.412 319.036L151.113 330.906L141.163 347.077L123.705 375.476L84.8797 438.616V438.699C68.9472 438.784 53.0626 438.88 37.2258 438.988V438.883C54.7246 409.147 72.7876 379.151 90.719 349.178C100.984 332.016 111.213 314.862 121.269 297.764Z" fill="#FFED88"/>
<path d="M141.436 383.529L141.265 383.985C134.148 385.023 127.706 388.766 123.279 394.434C118.852 400.102 116.782 407.26 117.5 414.416C114.382 413.79 111.153 414.031 108.163 415.113C105.173 416.195 102.538 418.077 100.543 420.553C98.5491 423.029 97.2716 426.005 96.8511 429.157C96.4312 432.308 96.883 435.514 98.1588 438.427L98.1628 438.63L84.8809 438.701V438.618L123.708 375.478L124.317 375.855C129.837 378.809 135.558 381.373 141.436 383.529Z" fill="#171717"/>
<path d="M126.022 289.669C124.445 292.363 122.861 295.062 121.269 297.766C111.212 314.863 101.029 332 90.7183 349.179L90.467 349.027C86.4831 344.605 82.911 339.828 79.7954 334.756C54.2921 293.919 43.6797 225.123 43.1162 215.366C63.6384 220.256 83.7594 226.698 103.305 234.637C108.541 236.764 113.735 239.002 118.885 241.349C120.843 252.35 123.89 263.129 127.983 273.527C128.954 275.983 130.081 278.476 131.364 281.005L130.977 281.194C129.334 284.016 127.682 286.841 126.022 289.669Z" fill="#FFED88"/>
<path d="M90.4678 349.026L90.719 349.178C72.7877 379.149 54.7253 409.144 37.2253 438.883V438.988C30.9026 439.032 24.5958 439.077 18.3046 439.125C14.0408 439.16 9.397 439.06 6.10076 436.355C2.23814 433.19 1.58573 427.497 2.30139 422.548C3.03688 417.471 4.88152 412.62 7.70427 408.336C10.527 404.054 14.2585 400.445 18.6336 397.768C23.0086 395.09 27.9197 393.41 33.0178 392.845C38.1159 392.28 43.2759 392.845 48.1311 394.5C46.0542 388.54 45.2252 382.216 45.6964 375.922C46.167 369.628 47.9277 363.498 50.8678 357.913C53.8085 352.328 57.8666 347.407 62.789 343.457C67.712 339.507 73.3951 336.612 79.4845 334.951L79.795 334.757C82.9106 339.828 86.4832 344.605 90.4678 349.026Z" fill="#171717"/>
<path d="M281.844 219.784C283.954 220.429 286.105 220.927 288.283 221.277V221.285C297.441 222.751 306.826 221.619 315.371 218.015C315.55 217.944 315.728 217.864 315.906 217.787C318.918 216.459 322.106 214.315 323.115 211.371C323.34 210.728 323.453 210.049 323.446 209.367C323.415 204.967 318.752 202.263 314.682 200.604C304.982 196.645 294.455 193.367 284.159 195.299C276.225 196.79 269.109 201.339 263.664 207.334C262.836 208.246 262.047 209.195 261.302 210.166C255.631 217.539 252.185 226.409 250.001 235.438C249.107 239.138 248.222 243.197 245.248 245.561C242.96 247.378 239.914 247.806 237.05 248.357C236.085 248.544 235.121 248.753 234.166 248.992C231.319 249.681 228.524 250.566 225.799 251.642C217.649 254.791 210.212 259.541 203.929 265.613C197.645 271.684 192.642 278.953 189.215 286.991C185.788 295.029 184.007 303.672 183.977 312.41C183.947 321.147 185.669 329.803 189.04 337.863" stroke="#171717" stroke-width="2.25239" stroke-linecap="round" stroke-linejoin="round"/>
<path d="M323.295 211.432C328.051 217.604 328.537 226.372 325.802 233.665C325.498 234.478 325.147 235.273 324.751 236.046C321.5 242.484 315.119 248.581 309.502 252.658" stroke="#171717" stroke-width="2.25239" stroke-linecap="round" stroke-linejoin="round"/>
<path d="M188.666 338.584C188.796 338.348 188.925 338.105 189.048 337.869C194.16 328.361 199.269 318.858 204.375 309.361C204.916 308.358 205.464 307.339 206.036 306.335C208.731 301.597 211.918 297.048 216.74 294.697C221.805 292.227 227.395 292.718 233.098 293.492C237.889 294.151 242.766 295.011 247.47 294.486C255.718 293.574 263.131 288.241 267.487 281.183C268.791 279.075 269.729 276.761 270.263 274.34C270.721 272.228 270.954 270.073 270.96 267.912C270.95 264.678 270.777 261.446 270.444 258.229C287.775 254.17 289.76 235.841 288.174 221.887" stroke="#171717" stroke-width="2.25239" stroke-linecap="round" stroke-linejoin="round"/>
<path d="M309.504 252.658C309.607 252.566 309.702 252.466 309.804 252.366C314.127 248.214 316.435 242.261 317.076 236.292C317.735 230.179 316.764 224.013 315.376 218.029" stroke="#171717" stroke-width="2.25239" stroke-linecap="round" stroke-linejoin="round"/>
<path d="M311.866 229.281C311.622 228.785 311.25 228.363 310.788 228.057C310.327 227.752 309.792 227.575 309.24 227.544C308.688 227.514 308.137 227.631 307.645 227.883C307.153 228.136 306.736 228.515 306.439 228.981" stroke="#171717" stroke-width="1.5014" stroke-linecap="round" stroke-linejoin="round"/>
<path d="M296.804 229.302C296.626 228.854 296.323 228.469 295.93 228.191C295.538 227.913 295.073 227.755 294.592 227.736C294.098 227.689 293.601 227.777 293.153 227.991C292.705 228.205 292.324 228.536 292.05 228.95" stroke="#171717" stroke-width="1.5014" stroke-linecap="round" stroke-linejoin="round"/>
<path d="M303.154 236.82C303.205 236.974 303.287 237.115 303.398 237.233C303.508 237.351 303.643 237.444 303.793 237.504C304.089 237.647 304.406 237.716 304.705 237.859C305.028 238.014 305.308 238.245 305.521 238.533C305.734 238.821 305.873 239.157 305.927 239.511C305.98 239.865 305.946 240.227 305.827 240.565C305.708 240.903 305.508 241.206 305.245 241.449C304.982 241.692 304.663 241.867 304.317 241.958C303.97 242.049 303.607 242.054 303.258 241.973C302.909 241.891 302.586 241.725 302.316 241.489C302.046 241.254 301.838 240.956 301.71 240.622" stroke="#171717" stroke-width="1.5014" stroke-linecap="round" stroke-linejoin="round"/>
<path d="M297.45 249.592C297.204 249.917 296.872 250.166 296.492 250.312C296.112 250.457 295.698 250.492 295.299 250.414C294.495 250.242 293.789 249.769 293.324 249.091C292.867 248.42 292.549 247.664 292.389 246.869" stroke="#171717" stroke-width="1.5014" stroke-linecap="round" stroke-linejoin="round"/>
<path d="M309.76 252.322C307.435 253.898 305.512 255.998 304.146 258.453C302.781 260.909 302.01 263.65 301.897 266.457" stroke="#171717" stroke-width="2.25239" stroke-linecap="round" stroke-linejoin="round"/>
<path d="M271.682 267.919C281.748 267.439 291.82 266.954 301.897 266.463L307.994 266.17C308.954 266.126 310.066 266.139 310.705 266.861C311.275 267.516 311.237 268.494 311.161 269.359C311.047 270.653 310.933 271.94 310.819 273.233C310.8 273.764 310.69 274.287 310.493 274.78C310.401 274.986 310.27 275.173 310.107 275.329C309.504 275.905 308.569 275.904 307.731 275.87C295.353 275.388 282.974 274.903 270.595 274.415" stroke="#171717" stroke-width="2.25239" stroke-linecap="round" stroke-linejoin="round"/>
<path d="M310.102 274.76C310.23 274.764 310.366 274.776 310.494 274.781C320.385 275.284 330.221 273.01 338.888 268.216C347.556 263.422 354.709 256.299 359.54 247.653C365.678 236.672 367.651 224.103 368.434 211.418C368.714 206.77 368.843 202.12 368.95 197.515" stroke="#171717" stroke-width="2.25239" stroke-linecap="round" stroke-linejoin="round"/>
<path d="M349.82 309.475C360.133 309.29 368.404 303.023 375.421 295.462C386.942 283.063 393.737 266.872 397.296 250.325C399.847 238.441 400.829 226.306 401.302 214.138C401.347 213.086 401.39 212.027 401.42 210.967C401.547 207.254 401.63 203.542 401.704 199.831" stroke="#171717" stroke-width="2.25239" stroke-linecap="round" stroke-linejoin="round"/>
<path d="M368.879 197.357C368.909 197.357 368.931 197.363 368.961 197.363C370.345 197.46 371.722 197.557 373.106 197.648C382.078 198.275 391.055 198.898 400.037 199.518C400.571 199.551 401.098 199.592 401.633 199.625" stroke="#171717" stroke-width="2.25239" stroke-linecap="round" stroke-linejoin="round"/>
<path d="M234.179 292.725C233.816 292.973 233.454 293.229 233.099 293.491C223.855 300.193 216.449 309.56 212.558 320.272C212.216 321.195 211.906 322.126 211.629 323.064C207.967 335.303 210.024 351.815 216.281 362.984C216.312 363.041 216.344 363.103 216.375 363.162" stroke="#171717" stroke-width="2.25239" stroke-linecap="round" stroke-linejoin="round"/>
<path d="M373.124 197.375C370.636 194.752 368.37 191.927 366.35 188.928C365.26 187.458 364.46 185.794 363.996 184.024C363.897 183.526 363.85 183.019 363.857 182.51C363.984 180.449 364.875 178.509 366.356 177.07C367.365 176.06 368.499 175.181 369.73 174.457C370.255 174.13 370.789 173.818 371.331 173.513C371.798 173.247 372.274 172.989 372.748 172.738C374.714 171.628 376.823 170.792 379.016 170.255C380.15 169.947 381.345 169.938 382.484 170.231C383.051 170.387 383.562 170.698 383.96 171.13C384.358 171.562 384.628 172.097 384.739 172.673C384.749 172.763 384.758 172.844 384.76 172.935C384.79 174.28 383.749 175.443 382.749 176.382C380.989 178.045 379.133 179.603 377.192 181.049C376.202 181.793 375.075 182.759 375.254 183.984C375.449 184.703 375.862 185.344 376.437 185.82C378.521 187.989 380.234 190.489 381.505 193.216" stroke="#171717" stroke-width="2.25239" stroke-linecap="round" stroke-linejoin="round"/>
<path d="M372.746 172.753V172.737C372.789 171.662 372.841 170.579 372.884 169.505C373.253 160.794 373.619 152.082 373.984 143.371C373.974 142.36 374.111 141.353 374.39 140.381C374.532 139.895 374.776 139.444 375.103 139.058C375.431 138.672 375.836 138.358 376.292 138.138C377.892 137.472 379.794 138.556 380.631 140.076C381.468 141.595 381.516 143.413 381.548 145.147C381.6 148.526 381.655 151.9 381.713 155.273C381.747 157.119 381.774 158.976 381.807 160.82C381.846 162.466 382.22 164.087 382.906 165.583C383.591 167.08 384.575 168.421 385.796 169.525" stroke="#171717" stroke-width="2.25239" stroke-linecap="round" stroke-linejoin="round"/>
<path d="M400.86 185.824C401.095 185.833 401.33 185.805 401.557 185.741C402.593 185.417 403.177 184.338 403.567 183.315C404.794 180.068 405.106 176.553 405.224 173.073C405.299 170.698 405.289 168.265 404.533 166.014C403.679 163.45 400.011 158.568 397.476 162.425C396.914 163.449 396.584 164.584 396.508 165.75C396.283 167.468 396.098 169.214 396.009 170.966C395.904 172.883 395.949 174.805 396.144 176.715C396.373 178.841 396.907 180.924 397.732 182.898C398.039 183.718 398.52 184.462 399.14 185.081C399.615 185.512 400.22 185.773 400.86 185.824Z" stroke="#171717" stroke-width="2.25239" stroke-linecap="round" stroke-linejoin="round"/>
<path d="M396.144 176.715C396.201 175.156 396.178 173.595 396.077 172.038C396.054 171.685 396.031 171.325 396.008 170.966C395.787 168.125 395.302 165.252 393.829 162.829C392.918 161.325 391.286 159.928 389.568 160.311C389.048 160.462 388.568 160.729 388.165 161.092C387.762 161.455 387.446 161.904 387.241 162.406C386.849 163.415 386.618 164.479 386.553 165.56C386.418 166.876 386.297 168.208 386.222 169.548C386.156 170.676 386.122 171.803 386.146 172.929C386.116 175.97 386.639 178.991 387.689 181.845C388.13 183.161 388.892 184.347 389.906 185.295C390.794 186.048 392.653 186.931 393.691 185.999C394.567 185.213 395.025 183.198 395.332 182.118C395.817 180.356 396.09 178.542 396.144 176.715Z" stroke="#171717" stroke-width="2.25239" stroke-linecap="round" stroke-linejoin="round"/>
<path d="M400.86 185.846C400.593 190.404 400.32 194.961 400.038 199.516C400.038 199.592 400.034 199.666 400.028 199.741" stroke="#171717" stroke-width="2.25239" stroke-linecap="round" stroke-linejoin="round"/>
<path d="M297.858 380.334C297.744 380.367 297.641 380.406 297.529 380.44C280.126 385.966 272.692 384.974 264.674 381.338C261.351 379.835 257.928 377.869 253.653 375.726C251.162 374.483 248.393 373.177 245.186 371.859C243.89 371.325 242.587 370.799 241.283 370.264C240.48 369.944 239.669 369.624 238.867 369.303C232.859 366.937 226.767 364.812 220.439 363.616C219.067 363.354 217.673 363.145 216.28 362.981C213.729 362.685 211.159 362.585 208.592 362.679C203.843 362.81 199.163 363.848 194.803 365.734C191.546 367.188 188.583 369.227 186.062 371.75C182.334 375.355 179.875 380.07 179.053 385.189C178.795 387.039 178.768 388.915 178.975 390.771C179.444 394.797 180.743 398.683 182.789 402.182C185.727 407.314 189.893 411.628 194.356 415.501C208.253 427.544 207.273 428.062 224.08 435.512" stroke="#171717" stroke-width="2.25239" stroke-linecap="round" stroke-linejoin="round"/>
<path d="M275.184 437.092C275.044 436.562 274.899 436.077 274.808 435.711C274.109 432.994 272.065 430.591 269.475 428.914C268.124 428.055 266.683 427.347 265.177 426.802C265.048 426.753 264.92 426.703 264.792 426.66C261.975 425.711 259.079 425.014 256.139 424.578C252.02 423.803 247.827 423.486 243.638 423.633C239.422 423.869 235.158 424.858 231.652 426.919C228.146 428.979 225.484 432.161 224.99 435.636C224.885 436.354 224.888 437.083 225.001 437.799C225.201 439.195 225.934 440.46 227.047 441.327C228.659 442.56 230.978 442.944 233.193 443.165C237.212 443.571 241.284 443.621 245.347 443.674C252.55 443.777 259.792 443.87 267.008 443.215C268.184 443.106 269.994 443.08 271.654 442.796C273.285 442.519 274.767 441.99 275.367 440.903C275.872 439.99 275.543 438.391 275.184 437.092Z" stroke="#171717" stroke-width="2.25239" stroke-linecap="round" stroke-linejoin="round"/>
<path d="M265.234 426.651C274.277 414.96 280.472 396.755 290.84 386.221C292.294 384.746 295 382.906 298.577 380.949C306.134 376.933 314.064 373.661 322.254 371.178C328.839 369.084 335.612 367.631 342.477 366.837C345.239 366.535 348.019 366.425 350.796 366.509C357.958 366.762 365.383 369.023 370.319 374.221C377.01 381.274 377.549 392.03 377.165 401.742C376.9 408.371 376.373 415.059 374.381 421.389C374.017 422.553 373.599 423.704 373.121 424.834C372.436 426.483 371.626 428.078 370.697 429.604C368.835 432.725 366.369 435.443 363.442 437.598C362.887 438.001 362.318 438.374 361.74 438.717C357.991 440.986 353.746 442.237 349.346 442.966C346.051 443.481 342.729 443.811 339.396 443.954C318.381 445.083 295.399 444.266 271.694 443.03" stroke="#171717" stroke-width="2.25239" stroke-linecap="round" stroke-linejoin="round"/>
<path d="M241.312 370.197L255.569 298.323" stroke="#171717" stroke-width="2.25239" stroke-linecap="round" stroke-linejoin="round"/>
<path d="M351.778 294.233L255.569 298.323" stroke="#171717" stroke-width="2.25239" stroke-linecap="round" stroke-linejoin="round"/>
<path d="M342.429 366.358L347.075 330.526L349.804 309.476L351.777 294.233" stroke="#171717" stroke-width="2.25239" stroke-linecap="round" stroke-linejoin="round"/>
<path d="M253.053 375.769L253.653 375.726L322.213 371.044" stroke="#171717" stroke-width="2.25239" stroke-linecap="round" stroke-linejoin="round"/>
<path d="M264.487 381.341L264.675 381.337L297.53 380.439L298.393 380.412" stroke="#171717" stroke-width="2.25239" stroke-linecap="round" stroke-linejoin="round"/>
<path d="M351.777 294.233L346.779 292.047" stroke="#171717" stroke-width="2.25239" stroke-linecap="round" stroke-linejoin="round"/>
<path d="M255.569 298.323L253.233 296.61" stroke="#171717" stroke-width="2.25239" stroke-linecap="round" stroke-linejoin="round"/>
<path d="M346.78 292.047L253.233 296.61" stroke="#171717" stroke-width="2.25239" stroke-linecap="round" stroke-linejoin="round"/>
<path d="M238.909 369.192L253.233 296.61" stroke="#171717" stroke-width="2.25239" stroke-linecap="round" stroke-linejoin="round"/>
<path d="M347.015 330.564C347.038 330.548 347.052 330.541 347.072 330.525C359.551 321.942 374.215 317.92 389.219 319.973C404.246 322.024 418.466 330.983 425.65 344.347C432.685 357.436 432.383 374.189 424.875 387.025C433.093 379.091 446.976 378.985 456.567 385.177C466.159 391.37 471.661 402.653 472.942 414C474.224 425.348 471.746 436.81 468.181 447.657" stroke="#171717" stroke-width="2.25239" stroke-linecap="round" stroke-linejoin="round"/>
<path d="M208.591 362.62C195.669 353.973 180.443 341.367 166.492 327.191C163.803 324.465 161.175 321.685 158.61 318.851C147.439 306.538 137.648 293.449 131.363 281.003C130.083 278.479 128.957 275.986 127.982 273.525C123.889 263.127 120.841 252.349 118.883 241.348C114.809 218.595 115.4 195.252 120.621 172.734C141.364 179.6 160.197 190.002 177.254 202.951C191.652 213.871 204.791 226.597 216.764 240.532C219.832 244.098 222.819 247.738 225.725 251.454" stroke="#171717" stroke-width="2.25239" stroke-linecap="round" stroke-linejoin="round"/>
<path d="M90.467 349.027C86.4831 344.605 82.911 339.828 79.7954 334.756C54.2921 293.919 43.6797 225.123 43.1162 215.366C63.6384 220.256 83.7594 226.698 103.305 234.637C108.541 236.764 113.735 239.002 118.885 241.349C119.136 241.456 119.386 241.57 119.636 241.685" stroke="#171717" stroke-width="2.25239" stroke-linecap="round" stroke-linejoin="round"/>
<path d="M178.124 390.866C165.36 390.94 152.149 387.495 141.436 383.529C135.558 381.372 129.837 378.807 124.316 375.853" stroke="#171717" stroke-width="2.25239" stroke-linecap="round" stroke-linejoin="round"/>
<path d="M177.656 202.431C180.992 196.8 184.326 191.171 187.657 185.546C189.525 182.403 191.392 179.255 193.258 176.102C193.556 175.6 193.852 175.097 194.149 174.595" stroke="#171717" stroke-width="2.25239" stroke-linecap="round" stroke-linejoin="round"/>
<path d="M37.2253 438.882C54.7253 409.144 72.7877 379.149 90.719 349.178C100.984 332.016 111.168 314.878 121.27 297.764C122.86 295.064 124.445 292.364 126.023 289.668C127.68 286.839 129.332 284.013 130.98 281.193" stroke="#171717" stroke-width="2.25239" stroke-linecap="round" stroke-linejoin="round"/>
<path d="M84.8798 438.616L123.707 375.476L141.164 347.077L151.113 330.906L158.41 319.036" stroke="#171717" stroke-width="2.25239" stroke-linecap="round" stroke-linejoin="round"/>
<path d="M363.723 184.083C356.481 196.417 348.476 207.86 341.255 220.786C336.885 226.891 333.249 232.228 329.677 238.361" stroke="#171717" stroke-width="2.25239" stroke-linecap="round" stroke-linejoin="round"/>
<path d="M372.919 169.453C372.904 169.468 372.897 169.492 372.883 169.506C371.716 171.081 370.662 172.735 369.727 174.458C369.67 174.557 369.619 174.663 369.569 174.762" stroke="#171717" stroke-width="2.25239" stroke-linecap="round" stroke-linejoin="round"/>
<path d="M407.226 114.719C398.467 128.04 390.011 141.558 381.856 155.271" stroke="#171717" stroke-width="2.25239" stroke-linecap="round" stroke-linejoin="round"/>
<path d="M324.752 236.046C326.399 236.819 328.041 237.592 329.678 238.362" stroke="#171717" stroke-width="2.25239" stroke-linecap="round" stroke-linejoin="round"/>
<path d="M194.149 174.595C217.312 185.25 240.831 195.992 263.58 207.259" stroke="#171717" stroke-width="2.25239" stroke-linecap="round" stroke-linejoin="round"/>
<path d="M216.824 240.479L234.098 248.707" stroke="#171717" stroke-width="2.25239" stroke-linecap="round" stroke-linejoin="round"/>
<path d="M401.453 214.143L443.796 138.287" stroke="#171717" stroke-width="2.25239" stroke-linecap="round" stroke-linejoin="round"/>
<path d="M407.226 114.719L371.519 94.1362" stroke="#171717" stroke-width="2.25239" stroke-linecap="round" stroke-linejoin="round"/>
<path d="M443.796 138.287L479.569 161.871" stroke="#171717" stroke-width="2.25239" stroke-linecap="round" stroke-linejoin="round"/>
<path d="M473.075 36.9194L371.519 94.1362" stroke="#171717" stroke-width="2.25239" stroke-linecap="round" stroke-linejoin="round"/>
<path d="M479.569 161.871L473.075 36.9194" stroke="#171717" stroke-width="2.25239" stroke-linecap="round" stroke-linejoin="round"/>
<path d="M269.688 51.1444C258.577 54.7409 248.977 62.547 242.776 72.4397C239.158 78.2197 236.619 84.9074 236.908 91.7272C237.179 98.1938 239.991 104.379 243.979 109.479C253.417 121.569 269.857 127.758 284.924 124.891C299.991 122.024 313.015 110.247 317.356 95.5271C321.07 82.9644 318.543 64.9082 308.353 55.6736C299.191 47.374 280.617 47.6082 269.688 51.1444Z" stroke="#171717" stroke-width="2.25239" stroke-linecap="round" stroke-linejoin="round"/>
<path d="M304.72 71.4077C301.978 71.9655 299.529 73.4949 297.825 75.7142C296.216 77.9729 295.723 81.0925 296.935 83.5807C298.147 86.069 301.222 87.6154 303.862 86.7676C306.501 85.9197 308.062 82.4839 306.679 80.0817" stroke="#171717" stroke-width="2.25239" stroke-linecap="round" stroke-linejoin="round"/>
<path d="M278.522 69.116C279.275 68.4226 280.231 67.9895 281.249 67.8801C282.266 67.7707 283.292 67.9913 284.175 68.5086C285.059 69.026 285.752 69.8129 286.155 70.7542C286.558 71.6955 286.648 72.741 286.412 73.737C286.175 74.733 285.626 75.627 284.844 76.2868C284.061 76.9472 283.088 77.3393 282.066 77.4053C281.045 77.4709 280.029 77.2071 279.169 76.6527C278.309 76.0982 277.649 75.2823 277.287 74.3251" stroke="#171717" stroke-width="2.25239" stroke-linecap="round" stroke-linejoin="round"/>
<path d="M262.671 88.7084C267.866 89.2913 271.549 95.5168 269.569 100.344C267.589 105.171 260.586 107.017 256.488 103.782C252.385 100.554 252.537 93.3197 256.765 90.2588" stroke="#171717" stroke-width="2.25239" stroke-linecap="round" stroke-linejoin="round"/>
<path d="M293.408 108.643C295.74 108.814 297.462 111.601 296.578 113.762C295.695 115.922 292.507 116.706 290.724 115.191C288.941 113.677 289.19 110.405 291.183 109.18" stroke="#171717" stroke-width="2.25239" stroke-linecap="round" stroke-linejoin="round"/>
<path d="M403.643 35.5172C407.107 32.2859 406.368 25.7316 402.275 23.3527C398.183 20.9739 392.113 23.5943 391.037 28.2136C392.205 21.2793 392.131 13.6218 388.091 7.86158C384.051 2.10156 374.948 -0.375324 369.804 4.42517C365.522 8.42511 365.719 15.2321 366.936 20.9721C365.817 15.5979 359.956 11.7113 354.571 12.7774C349.186 13.8435 345.248 19.6679 346.27 25.0598C342.615 24.1653 338.55 23.3778 335.265 25.208C329.346 28.5014 332.675 33.0141 337.112 33.9674C344.107 35.4637 352.739 34.3326 359.904 34.495C367.297 34.6688 374.692 34.842 382.091 35.0147C385.506 35.095 401.377 37.6249 403.643 35.5172Z" stroke="#171717" stroke-width="2.25239" stroke-linecap="round" stroke-linejoin="round"/>
<path d="M158.285 87.7011C162.387 87.5302 166.641 87.3199 170.294 85.4362C173.947 83.5525 176.823 79.4933 175.975 75.4722C175.067 71.1595 170.204 68.6023 165.803 68.8809C161.401 69.1595 157.452 71.568 153.859 74.1104C159.746 68.3624 160.631 58.2133 155.826 51.5313C151.022 44.8494 141.126 42.4574 133.796 46.21C126.466 49.9627 122.631 59.3979 125.245 67.2017C121.959 58.917 111.176 54.5689 103.058 58.2645C94.9405 61.9602 91.1377 72.9407 95.2265 80.8619C92.2841 82.2721 88.8551 82.0334 85.5919 81.8875C81.3379 81.6966 69.8423 83.7929 76.1744 89.2464C80.9436 93.3529 94.267 90.382 99.7735 90.1546L158.285 87.7011Z" stroke="#171717" stroke-width="2.25239" stroke-linecap="round" stroke-linejoin="round"/>
<path d="M79.4821 334.951C73.3927 336.612 67.7102 339.507 62.7872 343.457C57.8642 347.408 53.8067 352.328 50.866 357.913C47.9253 363.498 46.1646 369.628 45.694 375.922C45.2233 382.217 46.0518 388.54 48.1287 394.501C43.2741 392.847 38.1146 392.282 33.0174 392.847C27.9199 393.413 23.0094 395.093 18.635 397.771C14.2606 400.448 10.5296 404.056 7.70707 408.338C4.88455 412.621 3.03985 417.472 2.30407 422.548C1.58842 427.497 2.24083 433.189 6.10344 436.355C9.40026 439.06 14.0435 439.159 18.3078 439.125C24.5995 439.074 30.9061 439.029 37.2275 438.988C53.0546 438.874 68.9392 438.778 84.882 438.699L98.1644 438.628C140.353 438.408 182.679 438.216 224.401 437.894" stroke="#171717" stroke-width="2.25239" stroke-linecap="round" stroke-linejoin="round"/>
<path d="M349.093 442.954C349.175 442.96 349.264 442.958 349.348 442.963C361.585 443.463 373.823 443.959 386.064 444.449C413.438 445.567 440.809 446.678 468.177 447.785C479.94 448.259 491.702 448.735 503.465 449.214" stroke="#171717" stroke-width="2.25239" stroke-linecap="round" stroke-linejoin="round"/>
<path d="M184.957 126.748L188.643 133.815L196.55 134.787L190.97 140.476L192.496 148.296L185.359 144.746L178.385 148.612L179.562 140.73L173.733 135.296L181.589 133.972L184.957 126.748Z" stroke="#171717" stroke-width="2.25239" stroke-linecap="round" stroke-linejoin="round"/>
<path d="M314.431 116.923L316.667 121.213L321.462 121.797L318.078 125.253L319.003 130L314.674 127.843L310.439 130.191L311.15 125.406L307.615 122.106L312.381 121.308L314.431 116.923Z" stroke="#FFED88" stroke-width="2.25239" stroke-linecap="round" stroke-linejoin="round"/>
<path d="M365.379 88.1757L369.655 107.199L388.85 110.624L369.827 114.899L366.402 134.095L362.126 115.071L342.931 111.647L361.955 107.37L365.379 88.1757Z" stroke="#171717" stroke-width="2.25239" stroke-linecap="round" stroke-linejoin="round"/>
<path d="M145.796 105.176L149.088 119.79L163.835 122.421L149.22 125.712L146.583 140.459L143.298 125.845L128.55 123.206L143.166 119.923L145.796 105.176Z" stroke="#171717" stroke-width="2.25239" stroke-linecap="round" stroke-linejoin="round"/>
<path d="M332.506 175.228C330.953 173.901 329.523 172.438 328.233 170.855C327.201 169.609 326.26 168.289 325.419 166.907" stroke="#FFED88" stroke-width="2.25239" stroke-linecap="round" stroke-linejoin="round"/>
<path d="M325.112 175.655C326.065 174 327.107 172.397 328.234 170.855C329.072 169.687 329.963 168.564 330.899 167.469" stroke="#FFED88" stroke-width="2.25239" stroke-linecap="round" stroke-linejoin="round"/>
<path d="M217.492 91.9089C216.414 90.2639 215.174 88.7317 213.788 87.3363C212.746 86.2685 211.622 85.2839 210.426 84.3922" stroke="#FFED88" stroke-width="2.25239" stroke-linecap="round" stroke-linejoin="round"/>
<path d="M210.258 91.485C212.948 88.8184 215.144 85.6959 216.743 82.2623" stroke="#FFED88" stroke-width="2.25239" stroke-linecap="round" stroke-linejoin="round"/>
<path d="M96.6146 196.339C94.512 194.629 92.4118 192.921 90.3132 191.214C88.8135 189.994 87.323 188.773 85.8239 187.56" stroke="#171717" stroke-width="2.25239" stroke-linecap="round" stroke-linejoin="round"/>
<path d="M86.4228 197.602C87.7196 195.471 89.0165 193.342 90.3133 191.215C91.9503 188.529 93.5873 185.844 95.2249 183.161" stroke="#171717" stroke-width="2.25239" stroke-linecap="round" stroke-linejoin="round"/>
<path d="M443.731 289.351C442.095 287.007 440.458 284.668 438.822 282.334C437.177 279.976 435.527 277.617 433.873 275.259" stroke="#171717" stroke-width="2.25239" stroke-linecap="round" stroke-linejoin="round"/>
<path d="M433.187 288.61C435.071 286.518 436.949 284.426 438.822 282.335C440.705 280.243 442.584 278.153 444.457 276.067" stroke="#171717" stroke-width="2.25239" stroke-linecap="round" stroke-linejoin="round"/>
<path d="M461.955 370.053C461.108 368.773 460.253 367.493 459.414 366.213C458.061 364.185 456.714 362.155 455.373 360.122" stroke="#171717" stroke-width="2.25239" stroke-linecap="round" stroke-linejoin="round"/>
<path d="M455.088 371.265L459.413 366.213C460.898 364.474 462.384 362.737 463.87 360.999" stroke="#171717" stroke-width="2.25239" stroke-linecap="round" stroke-linejoin="round"/>
<path d="M49.4644 318.289C47.8433 316.069 45.9881 314.031 43.93 312.21C42.6069 311.027 41.2001 309.941 39.7198 308.962" stroke="#FFED88" stroke-width="2.25239" stroke-linecap="round" stroke-linejoin="round"/>
<path d="M39.7426 318.731C41.1363 316.56 42.5317 314.386 43.93 312.21C44.8662 310.755 45.7949 309.308 46.7317 307.852" stroke="#FFED88" stroke-width="2.25239" stroke-linecap="round" stroke-linejoin="round"/>
<path d="M266.066 190.481C264.688 188.995 263.316 187.506 261.949 186.014C260.602 184.558 259.256 183.109 257.916 181.652" stroke="#171717" stroke-width="2.25239" stroke-linecap="round" stroke-linejoin="round"/>
<path d="M258.094 189.6C259.504 188.546 260.797 187.344 261.949 186.014C263.282 184.478 264.415 182.78 265.321 180.961" stroke="#171717" stroke-width="2.25239" stroke-linecap="round" stroke-linejoin="round"/>
<path d="M299.414 328.869C298.29 330.072 297.482 331.535 297.061 333.126C296.218 335.751 295.819 338.741 297.142 341.152C299.052 344.668 304.264 345.476 307.604 343.269C309.088 342.247 310.222 340.794 310.853 339.106C311.484 337.419 311.582 335.578 311.133 333.833C309.917 329.438 303.413 325.043 299.414 328.869Z" stroke="#FFED88" stroke-width="2.25239" stroke-linecap="round" stroke-linejoin="round"/>
<path d="M373.063 424.841C373.083 424.834 373.103 424.83 373.124 424.831C377.93 423.838 382.365 426.028 385.269 430.005C386.703 432.026 387.54 434.41 387.684 436.884C387.828 439.359 387.274 441.824 386.084 443.999" stroke="#171717" stroke-width="2.25239" stroke-linecap="round" stroke-linejoin="round"/>
<path d="M259.629 437.664C260.78 434.04 260.468 430.111 258.762 426.713" stroke="#171717" stroke-width="2.25239" stroke-linecap="round" stroke-linejoin="round"/>
<path d="M250.878 438.174C250.905 438.099 250.928 438.024 250.947 437.946C252.202 434.138 251.984 429.998 250.335 426.343" stroke="#171717" stroke-width="2.25239" stroke-linecap="round" stroke-linejoin="round"/>
<path d="M241.69 437.674C242.735 434.127 242.55 430.332 241.165 426.905" stroke="#171717" stroke-width="2.25239" stroke-linecap="round" stroke-linejoin="round"/>
<path d="M264.75 426.789C262.754 426.867 260.754 426.832 258.762 426.683C256.071 426.512 253.189 426.243 250.354 426.082C247.263 425.835 244.155 425.892 241.076 426.252C240.582 426.324 240.096 426.409 239.625 426.51C237.645 426.852 235.835 427.84 234.476 429.321C233.204 430.851 232.744 433.159 233.729 434.887C235.089 437.259 238.311 437.616 241.039 437.698C241.256 437.708 241.474 437.71 241.693 437.713C244.781 437.81 247.87 437.899 250.949 437.95C253.849 438.007 256.748 438.031 259.638 437.996C264.698 437.944 269.747 437.726 274.774 437.199" stroke="#171717" stroke-width="2.25239" stroke-linecap="round" stroke-linejoin="round"/>
<path d="M370.588 429.664C370.623 429.64 370.66 429.619 370.699 429.602C371.85 429.036 373.165 428.9 374.408 429.219C374.879 429.319 375.333 429.489 375.756 429.721C376.467 430.134 377.057 430.729 377.465 431.444C377.873 432.158 378.084 432.969 378.077 433.792C378.005 435.198 377.401 436.523 376.388 437.501C375.379 438.469 374.162 439.192 372.831 439.615C370.77 440.317 368.573 440.526 366.417 440.224C364.779 440.013 363.195 439.501 361.744 438.714C361.718 438.705 361.692 438.693 361.669 438.678" stroke="#171717" stroke-width="2.25239" stroke-linecap="round" stroke-linejoin="round"/>
<path d="M366.321 440.369C366.351 440.319 366.382 440.271 366.416 440.224C368.774 436.518 371.438 433.015 374.378 429.752" stroke="#171717" stroke-width="2.25239" stroke-linecap="round" stroke-linejoin="round"/>
<path d="M121.3 297.802C121.292 297.787 121.276 297.78 121.269 297.766C115.982 292.026 110.589 286.229 105.166 280.463C99.1747 274.093 93.1389 267.747 87.1658 261.55" stroke="#171717" stroke-width="2.25239" stroke-linecap="round" stroke-linejoin="round"/>
<path d="M185.688 371.076C178.575 362.583 171.401 354.15 164.166 345.777C159.881 340.827 155.578 335.899 151.258 330.994" stroke="#171717" stroke-width="2.25239" stroke-linecap="round" stroke-linejoin="round"/>
<path d="M192.9 278.754C189.744 272.638 186.482 266.571 183.115 260.552C177.405 250.317 171.406 240.25 165.117 230.353C162.252 225.836 159.327 221.355 156.34 216.911C152.572 211.304 148.716 205.757 144.773 200.274" stroke="#171717" stroke-width="2.25239" stroke-linecap="round" stroke-linejoin="round"/>
<path d="M212.399 320.213C210.449 315.623 208.44 311.059 206.371 306.522" stroke="#171717" stroke-width="2.25239" stroke-linecap="round" stroke-linejoin="round"/>
<path d="M165.115 230.375C165.115 230.367 165.115 230.36 165.115 230.352C165.143 222.226 165.17 214.103 165.195 205.984" stroke="#171717" stroke-width="2.25239" stroke-linecap="round" stroke-linejoin="round"/>
<path d="M183.099 261.056C183.103 260.891 183.106 260.718 183.11 260.553C183.368 249.171 183.625 237.791 183.881 226.413" stroke="#171717" stroke-width="2.25239" stroke-linecap="round" stroke-linejoin="round"/>
<path d="M205.581 264.023C205.986 259.929 206.335 255.829 206.628 251.722" stroke="#171717" stroke-width="2.25239" stroke-linecap="round" stroke-linejoin="round"/>
<path d="M185.475 297.174C177.992 297.934 170.507 298.691 163.02 299.446" stroke="#171717" stroke-width="2.25239" stroke-linecap="round" stroke-linejoin="round"/>
<path d="M182.947 260.585C172.357 260.168 161.436 259.36 150.84 259.349" stroke="#171717" stroke-width="2.25239" stroke-linecap="round" stroke-linejoin="round"/>
<path d="M164.975 230.176C152.974 227.099 140.492 223.656 128.491 220.582" stroke="#171717" stroke-width="2.25239" stroke-linecap="round" stroke-linejoin="round"/>
<path d="M105.437 280.779C93.3908 276.467 81.1078 272.85 68.6476 269.944" stroke="#171717" stroke-width="2.25239" stroke-linecap="round" stroke-linejoin="round"/>
<path d="M105.168 280.515C105.168 280.5 105.168 280.477 105.168 280.463C104.229 270.253 103.913 259.996 104.221 249.748" stroke="#171717" stroke-width="2.25239" stroke-linecap="round" stroke-linejoin="round"/>
<path d="M116.307 305.932C107.859 306.308 99.4077 306.447 90.9514 306.347" stroke="#171717" stroke-width="2.25239" stroke-linecap="round" stroke-linejoin="round"/>
<path d="M164.147 345.911C156.546 346.246 148.951 346.723 141.355 347.193" stroke="#171717" stroke-width="2.25239" stroke-linecap="round" stroke-linejoin="round"/>
<path d="M164.147 345.912C164.153 345.867 164.159 345.821 164.166 345.776C164.944 339.579 165.72 333.383 166.493 327.191C166.505 327.048 166.524 326.913 166.544 326.769" stroke="#171717" stroke-width="2.25239" stroke-linecap="round" stroke-linejoin="round"/>
<path d="M126.022 289.685V289.669C125.756 284.142 125.332 278.609 124.744 273.109" stroke="#171717" stroke-width="2.25239" stroke-linecap="round" stroke-linejoin="round"/>
<path d="M141.266 383.984C134.15 385.021 127.707 388.764 123.28 394.432C118.854 400.101 116.784 407.258 117.501 414.414C114.384 413.788 111.155 414.029 108.165 415.111C105.175 416.193 102.539 418.075 100.545 420.551C98.5502 423.027 97.2733 426.003 96.8528 429.154C96.4323 432.307 96.8847 435.513 98.1604 438.426" stroke="#171717" stroke-width="2.25239" stroke-linecap="round" stroke-linejoin="round"/>
<path d="M368.569 211.43C379.342 211.264 390.117 211.104 400.893 210.949" stroke="#171717" stroke-width="2.25239" stroke-linecap="round" stroke-linejoin="round"/>
<g opacity="0.1">
<path d="M116.177 174.81C112.193 189.562 112.941 206.081 114.59 221.138C119.258 265.343 139.399 306.476 171.456 337.269C177.071 342.687 183.073 347.689 189.415 352.235C192.572 354.591 195.927 356.669 199.443 358.446C203.059 360.174 206.301 362.712 210.257 363.584C211.082 363.786 211.949 363.716 212.73 363.384C213.511 363.052 214.164 362.477 214.591 361.743C215.018 361.01 215.196 360.158 215.099 359.315C215.002 358.472 214.634 357.683 214.052 357.066C211.807 354.551 208.84 353.168 206.293 351.026C203.763 348.9 201.232 346.786 198.657 344.711C193.472 340.533 188.364 336.217 183.487 331.677C174.068 322.949 165.592 313.253 158.201 302.751C141.985 279.584 131.665 252.959 127.467 225.013C126.324 217.201 125.711 209.32 125.632 201.424C125.518 192.996 126.27 184.584 126.202 176.162C126.156 170.45 117.7 169.185 116.181 174.806L116.177 174.81Z" fill="#171717"/>
</g>
<g opacity="0.1">
<path d="M236.02 290.153C229.561 292.418 224.362 299.048 220.591 304.529C216.568 310.561 213.68 317.275 212.067 324.343C208.438 339.914 210.645 356.273 218.27 370.326C222.074 377.347 232.724 371.108 228.97 364.071C222.971 352.823 220.765 339.54 223.479 327.022C225.606 318.411 229.391 310.298 234.622 303.135C236.532 300.674 238.815 298.417 240.243 295.646C241.625 292.964 239.294 289.004 236.02 290.153Z" fill="#171717"/>
</g>
<g opacity="0.1">
<path d="M351.586 310.349C358.758 309.21 365.524 304.245 370.923 299.617C376.572 294.693 381.462 288.96 385.435 282.606C394.594 268.19 398.78 251.335 400.203 234.459C401.071 224.158 400.902 213.769 400.42 203.452C400.171 198.123 391.753 198.153 392.14 203.452C393.691 224.659 393.188 246.974 384.806 266.866C381.412 275.039 376.599 282.547 370.592 289.044C367.639 292.237 364.35 295.1 360.779 297.583C357.027 300.152 352.908 302.028 349.116 304.492C345.934 306.561 348.068 310.909 351.586 310.349Z" fill="#171717"/>
</g>
<g opacity="0.1">
<path d="M272.199 266.72C273.505 265.053 274.485 263.316 276.045 261.843C277.465 260.502 279.039 259.344 280.531 258.087C283.818 255.362 286.535 252.014 288.525 248.236C292.434 240.663 293.772 231.417 291.164 223.211C289.871 219.144 283.85 220.805 284.777 224.972C286.508 232.759 285.429 240.581 281.073 247.343C278.965 250.615 276.112 252.959 273.29 255.574C270.698 257.976 267.677 261.091 267.703 264.861C267.717 266.934 270.723 268.604 272.195 266.722L272.199 266.72Z" fill="#171717"/>
</g>
<g opacity="0.1">
<path d="M100.285 437.605C100.11 432.737 101.983 428.631 106.229 426.026C109.88 423.786 113.715 422.735 117.842 424.263C121.402 425.582 124.873 422.212 124.964 418.836C125.148 412.169 127.15 406.699 130.692 401.08C133.981 395.863 139.539 393.672 143.732 389.466C145.925 387.265 144.154 383.984 141.357 383.733C133.921 383.067 126.353 389.479 121.765 394.741C116.205 401.118 113.32 410.417 113.707 418.836L120.83 413.408C113.623 411.971 105.339 413.144 100.287 419.01C95.9924 423.998 94.7503 431.831 96.7132 438.088C97.3063 439.979 100.36 439.725 100.281 437.605H100.285Z" fill="#171717"/>
</g>
<g opacity="0.1">
<path d="M275.696 48.3323C268.146 50.2759 261.01 53.5681 254.631 58.0507C247.591 63.0079 241.721 68.8197 238.191 76.8356C234.304 85.6639 233.789 94.7737 237.802 103.637C241.241 111.236 247.928 116.078 255.112 119.846C259.503 122.149 265.018 123.275 269.877 124.223C274.655 125.154 279.646 125.542 284.464 124.762C286.401 124.448 285.847 121.938 284.464 121.362C282.253 120.442 279.913 120.123 277.812 119.088C275.83 118.112 273.405 117.866 271.302 117.199C266.502 115.676 262.607 113.281 258.46 110.497C255.353 108.411 252.951 104.87 251.014 101.718C249.128 98.6466 247.612 95.592 247.286 91.9647C246.431 82.4298 251.906 74.8612 256.445 67.0494C260.906 59.3743 268.71 54.1767 276.686 50.6759C278.05 50.0764 277.059 47.9916 275.698 48.3323H275.696Z" fill="#171717"/>
</g>
</svg>
